# xmcd
#
# Track frame offsets:
#	150
#	9812
#	20319
#	36131
#	50218
#	62072
#	72584
#	85039
#	96778
#	109515
#	123495
#	135649
#	146236
#	160601
#	174343
#	187145
#
# Disc length: 2773 seconds
#
# Revision: 0
# Processed by: cddbd v1.5.2PL0 Copyright (c) Steve Scherf et al.
# Submitted via: MusicWizard 7.2.0
#
DISCID=d70ad310
DTITLE=Various Artist - Gala Der Weltstars CD 2
DYEAR=1997
DGENRE=Blues
TTITLE0=Sampler - Sam Cooke Wonderful World
TTITLE1=Sampler - Pat Boone Love Letters In The Sand
TTITLE2=Sampler - Englebert Please Release Me (Let Me Go)
TTITLE3=Sampler - Al Martino Spanish Eyes
TTITLE4=Sampler - Paul Anka Put Your Head On My Shoulders
TTITLE5=Sampler - Connie Francis Lipstick On Your Collar
TTITLE6=Sampler - Dean Martin Everybody Loves Somebody
TTITLE7=Sampler - Fats Domino Blueberry Hill
TTITLE8=Sampler - Judy Garland Over The Rainbow
TTITLE9=Sampler - Harry Belafonte Banana Boat Sond (Day-O)
TTITLE10=Sampler - Dean Martin and Sammy Davis Jr. Sam´s Song
TTITLE11=Sampler - Ray Charles I Wonder Who´s Kissing Her Now
TTITLE12=Sampler - Ella Fitzgerald My Heart Belongs To Daddy
TTITLE13=Sampler - Dooley Wilson As Times Go By
TTITLE14=Sampler - Sarah Vaughan What A Difference A Day Made
TTITLE15=Sampler - Mahalia Jackson Down By The Riverside
EXTD=
EXTT0=
EXTT1=
EXTT2=
EXTT3=
EXTT4=
EXTT5=
EXTT6=
EXTT7=
EXTT8=
EXTT9=
EXTT10=
EXTT11=
EXTT12=
EXTT13=
EXTT14=
EXTT15=
PLAYORDER=
